<svg fill="#000000" xmlns="http://www.w3.org/2000/svg"  viewBox="0 0 64 64" width="64px" height="64px"><path d="M 7.1367188 10 C 5.4166058 10 4 11.416063 4 13.136719 L 4 18.863281 C 4 20.18213 4.8361643 21.31704 6 21.777344 L 6 53.296875 C 6 54.778435 7.2215653 56 8.703125 56 L 57.296875 56 C 58.778435 56 60 54.778435 60 53.296875 L 60 21.777344 C 61.163836 21.317167 62 20.182546 62 18.863281 L 62 13.136719 C 62 11.416606 60.583937 10 58.863281 10 L 7.1367188 10 z M 7.1367188 12 L 58.863281 12 C 59.504626 12 60 12.496832 60 13.136719 L 60 18.863281 C 60 19.504626 59.503168 20 58.863281 20 L 55 20 A 1.0001 1.0001 0 0 0 54.929688 21.998047 A 1.0001 1.0001 0 0 0 55 22 L 58 22 L 58 53.296875 C 58 53.697315 57.697315 54 57.296875 54 L 8.703125 54 C 8.3026847 54 8 53.697315 8 53.296875 L 8 22 L 43 22 A 1.0001 1.0001 0 0 0 43.099609 21.996094 A 1.0001 1.0001 0 0 0 43 20 L 7.1367188 20 C 6.4968317 20 6 19.503168 6 18.863281 L 6 13.136719 C 6 12.495374 6.4968317 12 7.1367188 12 z M 47 20 A 1.0001 1.0001 0 1 0 47 22 L 51 22 A 1.0001 1.0001 0 1 0 51 20 L 47 20 z M 26 26 C 23.802666 26 22 27.802666 22 30 C 22 32.197334 23.802666 34 26 34 L 40 34 C 42.197334 34 44 32.197334 44 30 C 44 27.802666 42.197334 26 40 26 L 26 26 z M 26 28 L 40 28 C 41.116666 28 42 28.883334 42 30 C 42 31.116666 41.116666 32 40 32 L 26 32 C 24.883334 32 24 31.116666 24 30 C 24 28.883334 24.883334 28 26 28 z M 12.904297 47.986328 A 1.0001 1.0001 0 0 0 11.919922 49 L 11.919922 51 A 1.0001 1.0001 0 1 0 13.919922 51 L 13.919922 49 A 1.0001 1.0001 0 0 0 12.904297 47.986328 z M 17.912109 47.986328 A 1.0001 1.0001 0 0 0 16.927734 49 L 16.927734 51 A 1.0001 1.0001 0 1 0 18.927734 51 L 18.927734 49 A 1.0001 1.0001 0 0 0 17.912109 47.986328 z M 22.917969 47.986328 A 1.0001 1.0001 0 0 0 21.933594 49 L 21.933594 51 A 1.0001 1.0001 0 1 0 23.933594 51 L 23.933594 49 A 1.0001 1.0001 0 0 0 22.917969 47.986328 z M 27.925781 47.986328 A 1.0001 1.0001 0 0 0 26.939453 49 L 26.939453 51 A 1.0001 1.0001 0 1 0 28.939453 51 L 28.939453 49 A 1.0001 1.0001 0 0 0 27.925781 47.986328 z M 32.931641 47.986328 A 1.0001 1.0001 0 0 0 31.947266 49 L 31.947266 51 A 1.0001 1.0001 0 1 0 33.947266 51 L 33.947266 49 A 1.0001 1.0001 0 0 0 32.931641 47.986328 z M 37.9375 47.986328 A 1.0001 1.0001 0 0 0 36.953125 49 L 36.953125 51 A 1.0001 1.0001 0 1 0 38.953125 51 L 38.953125 49 A 1.0001 1.0001 0 0 0 37.9375 47.986328 z M 42.945312 47.986328 A 1.0001 1.0001 0 0 0 41.960938 49 L 41.960938 51 A 1.0001 1.0001 0 1 0 43.960938 51 L 43.960938 49 A 1.0001 1.0001 0 0 0 42.945312 47.986328 z M 47.951172 47.986328 A 1.0001 1.0001 0 0 0 46.966797 49 L 46.966797 51 A 1.0001 1.0001 0 1 0 48.966797 51 L 48.966797 49 A 1.0001 1.0001 0 0 0 47.951172 47.986328 z M 52.957031 47.986328 A 1.0001 1.0001 0 0 0 51.972656 49 L 51.972656 51 A 1.0001 1.0001 0 1 0 53.972656 51 L 53.972656 49 A 1.0001 1.0001 0 0 0 52.957031 47.986328 z"/></svg>